<svg viewBox="0 0 900 260" xmlns="http://www.w3.org/2000/svg">
  <defs>
    <linearGradient id="bgGrad" x1="0" y1="0" x2="1" y2="1">
      <stop offset="0%" stop-color="#0b1020"/>
      <stop offset="100%" stop-color="#141b34"/>
    </linearGradient>
  </defs>

  <rect x="0" y="0" width="900" height="260" rx="16" fill="url(#bgGrad)"/>
  <rect x="1" y="1" width="898" height="258" rx="15" fill="none" stroke="#1f2733" stroke-width="1.5"/>

  <text x="450" y="42" text-anchor="middle" font-family="Segoe UI, Helvetica, Arial, sans-serif" font-weight="700" font-size="30" fill="#e6edf3" opacity="0">
    Samir Hadiyal
    <animate attributeName="opacity" from="0" to="1" dur="1.4s" begin="0.1s" fill="freeze"/>
  </text>
  <text x="450" y="68" text-anchor="middle" font-family="Consolas, Monaco, monospace" font-size="14" fill="#7d8590" opacity="0">
    AI/ML Engineer  ·  Computer Engineering Student @ AVPTI
    <animate attributeName="opacity" from="0" to="1" dur="1.4s" begin="0.5s" fill="freeze"/>
  </text>

  <g stroke="#2a3548" stroke-width="1" opacity="0.55">
    <line x1="130" y1="130" x2="340" y2="110"/>
    <line x1="130" y1="130" x2="340" y2="150"/>
    <line x1="130" y1="170" x2="340" y2="150"/>
    <line x1="130" y1="170" x2="340" y2="190"/>
    <line x1="130" y1="210" x2="340" y2="190"/>
    <line x1="130" y1="210" x2="340" y2="230"/>
    <line x1="130" y1="130" x2="340" y2="190"/>
    <line x1="130" y1="210" x2="340" y2="150"/>

    <line x1="340" y1="110" x2="560" y2="110"/>
    <line x1="340" y1="150" x2="560" y2="110"/>
    <line x1="340" y1="150" x2="560" y2="150"/>
    <line x1="340" y1="190" x2="560" y2="150"/>
    <line x1="340" y1="190" x2="560" y2="230"/>
    <line x1="340" y1="230" x2="560" y2="230"/>
    <line x1="340" y1="230" x2="560" y2="190"/>
    <line x1="340" y1="110" x2="560" y2="150"/>

    <line x1="560" y1="110" x2="770" y2="170"/>
    <line x1="560" y1="150" x2="770" y2="170"/>
    <line x1="560" y1="190" x2="770" y2="170"/>
    <line x1="560" y1="230" x2="770" y2="170"/>
  </g>

  <g fill="#38bdf8">
    <circle cx="130" cy="130" r="4"><animate attributeName="opacity" values="0.4;1;0.4" dur="2s" begin="0s" repeatCount="indefinite"/></circle>
    <circle cx="130" cy="170" r="4"><animate attributeName="opacity" values="0.4;1;0.4" dur="2s" begin="0.2s" repeatCount="indefinite"/></circle>
    <circle cx="130" cy="210" r="4"><animate attributeName="opacity" values="0.4;1;0.4" dur="2s" begin="0.4s" repeatCount="indefinite"/></circle>
  </g>

  <g fill="#a78bfa">
    <circle cx="340" cy="110" r="4"><animate attributeName="opacity" values="0.4;1;0.4" dur="2s" begin="0.3s" repeatCount="indefinite"/></circle>
    <circle cx="340" cy="150" r="4"><animate attributeName="opacity" values="0.4;1;0.4" dur="2s" begin="0.5s" repeatCount="indefinite"/></circle>
    <circle cx="340" cy="190" r="4"><animate attributeName="opacity" values="0.4;1;0.4" dur="2s" begin="0.7s" repeatCount="indefinite"/></circle>
    <circle cx="340" cy="230" r="4"><animate attributeName="opacity" values="0.4;1;0.4" dur="2s" begin="0.9s" repeatCount="indefinite"/></circle>
  </g>

  <g fill="#2dd4bf">
    <circle cx="560" cy="110" r="4"><animate attributeName="opacity" values="0.4;1;0.4" dur="2s" begin="0.6s" repeatCount="indefinite"/></circle>
    <circle cx="560" cy="150" r="4"><animate attributeName="opacity" values="0.4;1;0.4" dur="2s" begin="0.8s" repeatCount="indefinite"/></circle>
    <circle cx="560" cy="190" r="4"><animate attributeName="opacity" values="0.4;1;0.4" dur="2s" begin="1.0s" repeatCount="indefinite"/></circle>
    <circle cx="560" cy="230" r="4"><animate attributeName="opacity" values="0.4;1;0.4" dur="2s" begin="1.2s" repeatCount="indefinite"/></circle>
  </g>

  <circle cx="770" cy="170" r="7" fill="#fbbf24">
    <animate attributeName="opacity" values="0.5;1;0.5" dur="1.6s" begin="0.9s" repeatCount="indefinite"/>
  </circle>
  <text x="770" y="197" text-anchor="middle" font-family="Consolas, Monaco, monospace" font-size="10" fill="#a8a29e">AI</text>

  <circle r="3.5" fill="#38bdf8">
    <animateMotion dur="3s" begin="0s" repeatCount="indefinite" path="M130,130 L340,110 L560,110 L770,170"/>
  </circle>
  <circle r="3.5" fill="#a78bfa">
    <animateMotion dur="3s" begin="1s" repeatCount="indefinite" path="M130,170 L340,150 L560,150 L770,170"/>
  </circle>
  <circle r="3.5" fill="#2dd4bf">
    <animateMotion dur="3s" begin="2s" repeatCount="indefinite" path="M130,210 L340,230 L560,230 L770,170"/>
  </circle>
</svg>
